HIERARCHY
ROOT hips_dup
{
	OFFSET 38.994835 108.019676 230.402130
	CHANNELS 6 Xposition Yposition Zposition Zrotation Yrotation Xrotation
	JOINT l_hip_dup
	{
		OFFSET 0.100000 0.000000 0.000000
		CHANNELS 3 Zrotation Yrotation Xrotation
		JOINT l_thigh_dup
		{
			OFFSET 7.071068 -7.071068 0.000000
			CHANNELS 3 Zrotation Yrotation Xrotation
			JOINT l_knee_dup
			{
				OFFSET 0.000020 -50.000011 0.000000
				CHANNELS 3 Zrotation Yrotation Xrotation
				JOINT l_foot_dup
				{
					OFFSET 0.000022 -46.844974 0.000000
					CHANNELS 3 Zrotation Yrotation Xrotation
					JOINT l_toes_dup
					{
						OFFSET 0.000004 -3.481765 12.994138
						CHANNELS 3 Zrotation Yrotation Xrotation
						End l_toes_End_dup
						{
							OFFSET 0.000000 0.000003 9.999998
						}
					}
				}
			}
		}
	}
	JOINT r_hip_dup
	{
		OFFSET 0.100000 0.000000 0.000000
		CHANNELS 3 Zrotation Yrotation Xrotation
		JOINT r_thigh_dup
		{
			OFFSET -7.071067 -7.071068 0.000000
			CHANNELS 3 Zrotation Yrotation Xrotation
			JOINT r_knee_dup
			{
				OFFSET 0.000026 -50.000000 -0.000000
				CHANNELS 3 Zrotation Yrotation Xrotation
				JOINT r_foot_dup
				{
					OFFSET 0.000021 -46.844951 0.000000
					CHANNELS 3 Zrotation Yrotation Xrotation
					JOINT r_toes_dup
					{
						OFFSET 0.000006 -3.481758 12.994106
						CHANNELS 3 Zrotation Yrotation Xrotation
						End r_toes_End_dup
						{
							OFFSET 0.000000 -0.000003 9.999996
						}
					}
				}
			}
		}
	}
	JOINT spine1_dup
	{
		OFFSET 0.000000 0.099998 0.000000
		CHANNELS 3 Zrotation Yrotation Xrotation
		JOINT spine2_dup
		{
			OFFSET 0.000001 10.421844 0.000000
			CHANNELS 3 Zrotation Yrotation Xrotation
			JOINT spine3_dup
			{
				OFFSET 0.000001 10.421852 0.000000
				CHANNELS 3 Zrotation Yrotation Xrotation
				JOINT spine4_dup
				{
					OFFSET 0.000001 10.421829 -0.000000
					CHANNELS 3 Zrotation Yrotation Xrotation
					JOINT neck1_dup
					{
						OFFSET 0.000001 10.421814 0.000000
						CHANNELS 3 Zrotation Yrotation Xrotation
						JOINT neck2_dup
						{
							OFFSET 0.000000 5.749954 -0.000000
							CHANNELS 3 Zrotation Yrotation Xrotation
							JOINT head_dup
							{
								OFFSET 0.000000 5.749924 0.000000
								CHANNELS 3 Zrotation Yrotation Xrotation
								End head_End_dup
								{
									OFFSET 0.000000 11.499686 -0.000000
								}
							}
						}
					}
					JOINT l_clavicle_dup
					{
						OFFSET 0.000000 10.421844 0.000000
						CHANNELS 3 Zrotation Yrotation Xrotation
						JOINT l_shoulder_dup
						{
							OFFSET 17.847798 3.850716 -0.981963
							CHANNELS 3 Zrotation Yrotation Xrotation
							JOINT l_elbow_dup
							{
								OFFSET 30.849020 0.000016 -0.000001
								CHANNELS 3 Zrotation Yrotation Xrotation
								JOINT l_hand_dup
								{
									OFFSET 30.320339 0.000015 -0.000002
									CHANNELS 3 Zrotation Yrotation Xrotation
									End l_hand_End_dup
									{
										OFFSET 14.999237 0.000010 0.000000
									}
								}
							}
						}
					}
					JOINT r_clavicle_dup
					{
						OFFSET 0.000000 10.421844 0.000000
						CHANNELS 3 Zrotation Yrotation Xrotation
						JOINT r_shoulder_dup
						{
							OFFSET -18.112579 2.260853 -1.076626
							CHANNELS 3 Zrotation Yrotation Xrotation
							JOINT r_elbow_dup
							{
								OFFSET -30.849059 0.000005 0.000001
								CHANNELS 3 Zrotation Yrotation Xrotation
								JOINT r_hand_dup
								{
									OFFSET -30.627892 0.000005 0.000004
									CHANNELS 3 Zrotation Yrotation Xrotation
									End r_hand_End_dup
									{
										OFFSET -14.999262 0.000003 0.000000
									}
								}
							}
						}
					}
				}
			}
		}
	}
}
MOTION
Frames: 12
Frame Time: 0.041667
43.464	106.490	421.095	-2.025	-179.668	-4.478	0.000	0.000	0.000	-1.375	3.947	6.987	-0.000	-0.000	23.605	-5.201	8.346	-30.636	-0.000	-0.000	10.083	0.000	0.000	0.000	-7.288	-0.992	-21.052	0.000	0.000	7.789	9.785	-6.410	3.763	0.000	-0.000	-8.679	-3.774	-2.167	1.848	-1.967	-2.106	1.784	0.281	-2.015	4.478	1.118	-1.941	7.734	2.814	1.530	-4.043	1.640	1.520	-3.334	0.464	1.531	-2.660	-12.809	-4.143	-3.104	-66.611	-12.872	-17.071	-0.000	-19.547	-0.000	-11.175	-18.471	1.454	8.864	2.331	-1.300	75.011	-0.266	-14.867	0.000	20.511	-0.000	2.838	-0.790	30.965
43.782	106.333	419.636	-1.937	-179.348	-4.291	0.000	0.000	0.000	-0.870	3.790	7.578	-0.000	0.000	23.814	-5.132	7.148	-30.548	0.000	-0.000	10.487	0.000	0.000	0.000	-6.729	-1.766	-20.503	-0.000	-0.000	7.074	9.436	-6.050	4.703	0.000	-0.000	-7.855	-3.532	-2.154	1.542	-1.915	-2.115	1.802	0.267	-1.997	4.617	1.170	-2.009	7.946	2.725	1.428	-4.318	1.581	1.427	-3.595	0.465	1.449	-2.911	-13.164	-4.278	-2.830	-66.212	-13.097	-16.733	-0.001	-19.381	-0.000	-10.498	-18.670	1.387	9.337	2.146	-2.743	74.531	-1.324	-14.927	0.000	20.072	-0.001	2.180	-1.200	31.153
44.798	106.011	415.234	-1.758	-178.747	-4.185	0.000	0.000	0.000	0.269	3.215	8.477	-0.000	0.000	26.877	-6.035	6.326	-29.057	0.000	-0.000	7.716	0.000	0.000	0.000	-5.776	-2.234	-19.768	-0.000	-0.000	8.794	8.563	-5.173	6.658	0.000	-0.000	1.421	-2.924	-2.125	1.418	-1.512	-2.085	1.691	0.281	-2.050	4.675	1.018	-1.980	7.878	2.437	1.227	-4.780	1.425	1.218	-4.089	0.439	1.246	-3.431	-14.373	-4.828	-2.606	-65.037	-12.563	-17.327	-0.002	-18.000	-0.001	-9.320	-17.700	2.614	9.474	2.487	-3.295	74.221	-1.598	-15.885	0.001	17.871	-0.002	1.750	-1.492	31.409
45.474	106.108	412.154	-1.547	-178.658	-4.277	0.000	0.000	0.000	1.266	3.241	9.071	-0.000	0.000	29.127	-6.651	5.432	-26.196	0.000	-0.000	3.839	0.000	0.000	0.000	-5.372	-1.175	-19.340	-0.000	0.000	11.294	7.901	-5.722	5.299	0.000	-0.000	6.887	-2.289	-2.043	1.283	-1.208	-2.069	1.649	0.255	-1.928	4.630	0.832	-1.947	7.949	2.215	1.156	-5.180	1.295	1.193	-4.350	0.391	1.253	-3.573	-14.281	-5.019	-3.137	-65.521	-11.533	-18.681	-0.002	-16.313	-0.002	-7.918	-16.559	2.937	9.391	2.856	-3.317	74.153	-1.670	-16.591	0.002	17.009	-0.003	1.523	-1.813	31.674
46.559	106.941	407.484	-0.914	-178.477	-4.588	0.000	0.000	0.000	3.843	4.656	9.416	0.000	0.000	32.797	-6.621	2.871	-18.802	0.000	-0.000	-4.823	0.000	0.000	0.000	-4.342	0.505	-17.792	-0.000	0.000	14.270	6.858	-7.077	2.037	0.000	-0.000	6.395	-1.322	-2.040	1.017	-0.677	-2.002	1.549	0.305	-1.954	4.807	0.762	-1.932	8.231	2.059	1.283	-5.709	1.117	1.301	-4.696	0.200	1.316	-3.664	-13.415	-5.032	-3.141	-67.334	-10.688	-23.827	-0.003	-13.677	-0.003	-6.345	-15.799	5.463	9.638	3.509	-3.336	73.301	-1.691	-17.059	0.003	16.949	-0.005	1.854	-2.994	32.787
47.788	107.707	403.056	0.007	-177.752	-5.067	0.000	0.000	0.000	7.095	5.960	7.486	0.000	0.000	40.026	-6.212	0.610	-9.210	0.000	-0.000	-10.949	0.000	0.000	0.000	-2.781	1.273	-15.539	-0.000	0.000	16.125	5.995	-8.552	-1.076	0.000	-0.000	5.298	-0.447	-2.149	1.300	-0.141	-2.136	1.577	0.458	-2.096	4.564	0.806	-2.058	8.069	2.397	1.398	-5.491	1.103	1.441	-4.634	-0.213	1.502	-3.706	-11.322	-4.354	-2.624	-70.392	-9.518	-26.499	-0.004	-12.759	-0.004	-5.239	-15.678	6.759	8.564	3.583	-3.240	73.789	-1.160	-17.009	0.004	17.190	-0.006	2.294	-2.890	33.497
48.749	108.086	400.348	0.538	-176.937	-5.459	0.000	0.000	0.000	9.249	6.432	5.263	0.000	0.000	45.795	-6.267	-0.609	-2.680	0.000	-0.000	-12.205	0.000	0.000	0.000	-1.624	0.875	-13.937	-0.000	-0.000	17.113	5.122	-8.977	-3.027	0.000	-0.000	5.547	-0.269	-2.309	1.676	0.017	-2.278	1.730	0.642	-2.120	4.570	1.175	-1.991	8.001	2.878	1.605	-5.460	1.150	1.656	-4.712	-0.586	1.748	-3.900	-10.301	-4.184	-2.268	-71.782	-8.958	-26.681	-0.005	-13.113	-0.005	-5.467	-15.699	7.030	8.003	3.298	-3.338	73.921	-0.269	-17.082	0.004	17.593	-0.007	3.240	-3.255	33.836
49.590	108.267	397.855	0.825	-176.000	-5.893	0.000	0.000	0.000	11.039	6.869	2.385	0.000	0.000	52.039	-5.690	-1.806	3.060	0.000	-0.000	-10.731	0.000	0.000	0.000	-0.781	0.034	-12.489	-0.000	-0.000	18.291	4.455	-9.011	-5.358	0.000	-0.000	6.275	-0.118	-2.286	2.097	0.085	-2.223	1.985	0.825	-2.153	4.511	1.512	-2.070	7.786	3.316	2.011	-5.166	1.150	2.075	-4.654	-1.017	2.193	-4.108	-9.694	-4.588	-1.664	-72.596	-8.597	-26.252	-0.005	-14.067	-0.006	-6.590	-14.723	7.293	8.040	3.115	-3.250	73.266	0.547	-16.735	0.005	18.561	-0.008	3.920	-2.937	33.272
50.718	108.257	394.410	0.825	-174.663	-6.606	0.000	0.000	0.000	12.359	6.522	-2.832	0.000	0.000	61.557	-5.583	-1.918	7.364	0.000	-0.000	-4.094	0.000	0.000	0.000	-0.078	-0.725	-10.335	-0.000	-0.000	19.869	3.618	-9.623	-9.522	0.000	-0.000	8.300	-0.148	-2.195	3.119	0.162	-2.170	2.359	1.057	-2.044	4.235	1.834	-1.938	7.273	4.028	3.514	-4.562	1.193	3.597	-4.428	-1.628	3.747	-4.217	-9.777	-5.280	-0.572	-72.467	-8.700	-23.969	-0.006	-15.382	-0.008	-9.385	-16.419	7.070	8.990	2.834	-3.100	71.082	1.840	-15.993	0.006	19.926	-0.009	4.323	-1.156	31.630
51.567	108.404	391.212	0.496	-173.774	-7.425	0.000	0.000	0.000	12.196	5.809	-7.244	-0.000	0.000	67.473	-5.885	-1.535	4.819	0.000	-0.000	1.044	0.000	0.000	0.000	0.169	-1.024	-7.688	-0.000	-0.000	20.294	2.952	-10.404	-12.351	0.000	-0.000	9.544	-0.094	-1.811	3.919	0.144	-1.821	2.863	1.143	-1.794	4.279	2.072	-1.755	6.986	4.215	6.357	-3.988	1.025	6.444	-4.106	-2.145	6.605	-4.036	-10.963	-4.664	-1.347	-71.097	-8.089	-17.336	-0.007	-17.979	-0.009	-9.606	-18.899	5.870	10.316	2.703	-3.285	68.294	3.293	-16.613	0.007	20.754	-0.010	3.431	1.397	30.083
51.926	108.557	389.236	0.165	-173.585	-7.603	0.000	0.000	0.000	11.449	5.584	-10.283	-0.000	0.000	69.060	-6.507	-2.411	0.644	0.000	-0.000	-0.438	0.000	0.000	0.000	0.139	-1.063	-6.265	-0.000	-0.000	20.273	2.608	-10.613	-13.684	0.000	-0.000	10.075	-0.014	-1.494	4.026	0.163	-1.510	2.967	1.156	-1.499	4.388	2.084	-1.475	7.056	4.749	8.642	-3.195	0.946	8.725	-3.711	-2.818	8.904	-3.932	-11.398	-4.025	-2.151	-70.845	-8.292	-15.641	-0.008	-19.162	-0.009	-10.135	-19.778	5.661	10.308	2.723	-3.562	67.405	4.134	-17.918	0.007	21.338	-0.011	2.595	2.442	29.600
52.277	108.647	386.501	-0.465	-173.678	-7.587	0.000	0.000	0.000	9.767	5.989	-14.587	-0.000	-0.000	67.899	-6.465	-3.169	-1.697	0.000	-0.000	-3.076	0.000	0.000	0.000	-0.116	-0.890	-4.674	-0.000	-0.000	20.506	2.189	-10.816	-15.769	0.000	-0.000	10.660	0.073	-0.968	3.868	0.220	-0.953	2.877	0.988	-0.904	4.390	1.803	-0.961	7.306	5.880	12.212	-1.116	1.034	12.270	-2.799	-3.787	12.441	-3.935	-10.399	-3.557	-2.996	-72.071	-8.810	-14.677	-0.009	-20.877	-0.010	-9.528	-19.445	3.014	8.945	3.180	-3.126	67.573	5.901	-20.636	0.008	21.299	-0.012	0.853	2.252	28.684
